<?xml version="1.0" standalone="no"?>
<!DOCTYPE svg PUBLIC "-//W3C//DTD SVG 20010904//EN"
 "http://www.w3.org/TR/2001/REC-SVG-20010904/DTD/svg10.dtd">
<svg version="1.0" xmlns="http://www.w3.org/2000/svg"
 width="1232.000000pt" height="661.000000pt" viewBox="0 0 1232.000000 661.000000"
 preserveAspectRatio="xMidYMid meet">

<g transform="translate(0.000000,661.000000) scale(0.100000,-0.100000)"
fill="#000000" stroke="none">
<path d="M6076 6583 c-7 -24 -1387 -6264 -1389 -6282 -2 -11 135 -48 572 -153
315 -76 576 -136 579 -133 5 5 1387 6236 1394 6284 3 25 0 25 -567 163 -313
75 -573 138 -577 138 -4 0 -9 -8 -12 -17z"/>
<path d="M1743 4903 l-1733 -1056 0 -522 0 -522 1736 -1058 c954 -581 1737
-1056 1738 -1054 17 18 595 1033 591 1037 -3 3 -593 362 -1311 797 -718 436
-1306 796 -1306 800 0 4 589 365 1309 801 719 437 1308 797 1308 802 0 11
-589 1032 -595 1032 -3 -1 -785 -476 -1737 -1057z"/>
<path d="M8540 5448 c-162 -282 -295 -516 -295 -520 0 -5 589 -365 1308 -802
720 -436 1310 -796 1310 -800 1 -4 -586 -364 -1305 -800 -719 -436 -1310 -795
-1313 -798 -4 -4 574 -1019 591 -1037 1 -2 784 473 1738 1054 l1736 1058 0
522 0 522 -1734 1057 c-953 581 -1735 1056 -1737 1056 -2 0 -137 -231 -299
-512z"/>
</g>
</svg>
